<?xml version="1.0" encoding="utf-8"?>
<!-- Generator: Adobe Illustrator 23.0.2, SVG Export Plug-In . SVG Version: 6.00 Build 0)  -->
<svg version="1.1" id="Слой_1" xmlns="http://www.w3.org/2000/svg" xmlns:xlink="http://www.w3.org/1999/xlink" x="0px" y="0px"
	 viewBox="0 0 755 317" style="enable-background:new 0 0 755 317;" xml:space="preserve">
<g>
	<g>
		<path d="M192,317c-0.44-0.24-0.85-0.6-1.31-0.69c-15.85-2.84-25.9-16.99-20.2-36.87c5.87-20.48,19.61-34.95,37.4-45.65
			c6.49-3.9,13.72-6.82,20.95-9.17c11.27-3.66,22.64-3.66,33.79,2.2c12.57-11.6,20.84-25.81,25.1-42.27
			c10.77-41.6-5.44-80.8-43.25-105.5C212.39,58.09,176.84,48.23,138.92,46c-1.75-0.1-3.58,1.06-5.37,1.64
			c-1.86,0.6-3.67,1.51-5.58,1.75c-2.46,0.31-5.01,0.28-7.48,0.05c-6.61-0.63-12.41-0.23-15.08,7.45c-0.69,1.99-2.84,3.81-4.76,4.97
			c-3.06,1.84-2.71,4.58-2.01,6.96c0.31,1.05,2.77,1.65,4.36,2.12c3.66,1.08,7.54,1.57,11.03,3.01c4.21,1.74,4.59,4.04,2.02,7.85
			c-0.74,1.1-1.58,2.15-2.41,3.18c-4.87,6.07-5.21,12.57-1.12,19c2.57,4.05,5.74,7.75,8.87,11.41c4.22,4.93,8.89,9.49,12.98,14.53
			c12.67,15.6,16.2,33.17,10.92,52.57c-4.75,17.46-13.92,32.71-23.63,47.7c-6.1,9.41-11.33,19.2-13.83,30.28
			c-4.35,19.27,3.06,36.47,20.14,46.41c1.58,0.92,3.44,1.48,4.78,2.66c0.94,0.83,1.59,2.41,1.6,3.66c0,0.56-1.85,1.2-2.92,1.68
			c-0.42,0.19-0.99,0.04-1.49,0.04c-28.33,0-56.65,0-84.98-0.01c-1.47,0-2.95-0.15-4.33-0.23c-2.06-4.11,0.89-5.06,3.4-6.39
			c17.71-9.41,26.43-24.83,23.41-43.39c-1.21-7.43-3.74-14.95-7.18-21.66c-5.6-10.94-12.99-20.97-18.59-31.91
			c-4.97-9.73-9.48-19.9-12.53-30.36c-6.32-21.7,0.7-40.28,15.59-56.44c4.96-5.39,10.14-10.62,14.64-16.38
			c7.52-9.62,7.32-15.24,0.06-25.09c-3.81-5.17-3.11-7.88,2.97-9.95c3.13-1.07,6.51-1.36,9.72-2.24c1.4-0.38,3.61-1.21,3.74-2.09
			c0.28-1.92,0.17-4.66-1.01-5.91c-15.27-16.17-14.3-39.63,2.5-54.67c6.3-5.64,13.24-5.71,19.77-0.09
			c6.01,5.18,9.52,11.98,11.72,19.41c0.83,2.81,2.11,3.73,4.88,3.61c4.16-0.18,8.38-0.44,12.48,0.09c2.91,0.37,5.63,2.07,8.49,3.01
			c2.13,0.7,4.33,1.47,6.54,1.61c33.14,2.21,64.91,9.69,94.3,25.46c26.18,14.05,48.32,32.57,58.47,61.61
			c13.95,39.92,7.79,76.43-21.19,108.14c-2.12,2.32-2.51,3.9-1.2,6.83c4.34,9.67,2.76,19.44-1.43,28.57
			c-12.11,26.41-32.79,42.59-60.84,49.59c-1.12,0.28-2.22,0.63-3.33,0.95C201.33,317,196.67,317,192,317z"/>
		<path d="M344.27,58.82c-0.09,1.83-0.17,2.81-0.17,3.79c-0.01,19.83-0.01,39.65-0.01,60.3c1.92,0,3.67,0,5.41,0
			c23.66,0,47.33,0.08,70.99-0.08c3.86-0.03,5.44,1.01,5.21,5.02c-0.27,4.65-0.31,9.35,0.01,13.99c0.3,4.33-1.11,5.73-5.59,5.68
			c-23.16-0.22-46.33-0.1-69.49-0.1c-1.97,0-3.94,0-6.22,0c0,24.71,0,48.93,0,73.76c2.12,0,4.06,0,6,0c25.66,0,51.33,0.01,76.99,0
			c9.06,0,7.59-0.12,7.68,7.93c0.04,4.33-0.12,8.67,0.05,13c0.12,3.09-1.17,4.03-4.13,4.03c-37.33-0.06-74.66-0.08-111.99,0.02
			c-3.46,0.01-4.17-1.45-4.15-4.51c0.11-14.33,0.05-28.66,0.05-42.99c0-52.83,0.07-105.65-0.12-158.48
			c-0.02-5.12,1.39-6.4,6.43-6.37c34.49,0.22,68.99,0.19,103.49,0.02c4.37-0.02,5.99,1.1,5.63,5.58c-0.37,4.64-0.38,9.35,0,13.98
			c0.38,4.61-1.52,5.55-5.74,5.53c-24.66-0.17-49.33-0.08-73.99-0.08C348.64,58.82,346.67,58.82,344.27,58.82z"/>
		<path d="M316.22,298.92c-3.08,0-5.36,0-8.02,0c0-11.89,0-23.61,0-36.56c2.6,0.8,4.93,1.6,7.32,2.21c0.64,0.16,1.51-0.11,2.15-0.45
			c6.61-3.48,12.73-3.34,18.28,2.57c1.2-0.91,2.31-1.86,3.52-2.64c8.24-5.3,18.65-1.33,19.77,8.34c1,8.63,0.21,17.48,0.21,26.46
			c-2.3,0-4.7,0-7.67,0c0-5.85,0.01-11.46,0-17.07c0-1.66,0.11-3.35-0.11-4.99c-0.52-3.94-1.52-7.83-6.29-8.39
			c-3.53-0.42-6.99,3.98-7.11,8.84c-0.15,6.15-0.04,12.32-0.06,18.47c0,0.96-0.14,1.92-0.23,3.12c-2.69,0-5.09,0-8.07,0
			c0-6.95,0.03-13.72-0.01-20.49c-0.04-6.01-2.49-9.94-6.13-10.01c-3.75-0.08-7.47,4.89-7.53,10.27
			C316.17,285.22,316.22,291.84,316.22,298.92z"/>
		<path d="M409.83,305.54c5.68,1.34,11.78,5.19,17.21,0.02c2.16-2.06,3.01-5.48,4.46-8.28c-0.39-0.3-0.77-0.59-1.16-0.89
			c-1.61,0.59-3.19,1.3-4.84,1.75c-13.41,3.62-23.39-7.23-20.39-22.12c2.34-11.61,12.28-16.73,23.5-12.75
			c2.9,1.03,6.58-0.12,10.96-0.31c-0.52,13.47-0.66,26.71-1.7,39.88c-0.44,5.53-4.6,9.43-10.23,10.19
			c-4.85,0.65-9.92,0.63-14.79,0.03C407.34,312.38,406.97,310.97,409.83,305.54z M430.77,280.22c0-0.83,0.03-1.66-0.01-2.49
			c-0.24-5.13-3.43-9.37-7.61-9.64c-4.91-0.31-7.52,2.81-9.08,6.99c-0.51,1.38-0.81,2.88-0.92,4.34c-0.55,7.36,3.34,13.2,8.83,13.4
			C427.35,293.04,430.79,288.11,430.77,280.22z"/>
		<path d="M510,298.71c0-9.83,0-19.44,0-29.38c-1.65-0.35-3.03-0.64-4.79-1.02c-0.11-1.53-0.22-3.11-0.35-4.98
			c1.67-0.27,3.08-0.5,4.46-0.72c0.19-0.34,0.45-0.61,0.48-0.9c1.29-12.63,8.45-17.83,20.93-15.17c5.63,1.2,5.86,1.79,2.9,7.25
			c-12.72-1.92-15.2-0.52-15.14,9.11c6.39,0,12.8,0,19.46,0c0,12.16,0,23.76,0,35.78c-2.5,0-5.02,0-8.07,0c0-9.85,0-19.6,0-29.61
			c-3.95,0-7.39,0-11.4,0c0,9.81,0,19.54,0,29.64C515.52,298.71,513.11,298.71,510,298.71z"/>
		<path d="M581.01,262.54c0,17.48,0,33.75,0,50.28c-2.72,0-5.12,0-7.91,0c0-5.11,0-10.05,0-15.42c-1,0.25-1.59,0.31-2.09,0.54
			c-12.5,5.83-23.78-0.79-24.08-14.53c-0.09-4.36,0.72-9.03,2.37-13.06c2.34-5.72,7.53-8.64,13.64-8.31
			C568.88,262.36,574.71,264.35,581.01,262.54z M572.91,280.86c-0.01,0-0.01,0-0.02,0c0-1.16,0.06-2.33-0.01-3.49
			c-0.27-4.69-2.63-8.06-7.19-8.98c-4.62-0.93-7.53,2.1-9.23,5.98c-0.9,2.06-1.26,4.49-1.31,6.76c-0.18,7.18,4,12.79,9.19,12.72
			c5.1-0.06,8.54-5.09,8.56-12.5C572.91,281.19,572.91,281.03,572.91,280.86z"/>
		<path d="M388.68,275.58c-1.26-7.19-5.24-9.25-12.02-6.7c-2.13,0.8-4.5,3.21-5.85-1.04c-1.23-3.88,1.89-4.22,4.05-4.75
			c3.03-0.74,6.23-1.18,9.35-1.1c7.38,0.17,11.74,3.63,12.33,11.03c0.67,8.39,0.15,16.88,0.15,26.28c-2.19-0.41-4.55-0.88-6.93-1.28
			c-0.69-0.11-1.44-0.09-2.12,0.07c-0.63,0.15-1.17,0.61-1.79,0.85c-7.85,3.02-15.68,0.35-17.66-6c-2.3-7.34,2.16-13.95,10.89-15.9
			C382.13,276.36,385.29,276.08,388.68,275.58z M388.38,280.66c-3.74,1.39-7.16,2.13-10,3.86c-2.68,1.63-3.5,5.03-1.11,7.23
			c1.51,1.4,4.95,2.12,6.86,1.39C389.22,291.21,389.44,286.65,388.38,280.66z"/>
		<path d="M479.96,298.88c-2.96,0-5.24,0-8.18,0c0-4.29,0.01-8.39,0-12.49c-0.01-3.16,0.15-6.34-0.09-9.48
			c-0.39-5.07-3.72-8.78-7.39-8.59c-3.9,0.2-7.81,4.3-8.01,8.9c-0.22,5.31-0.06,10.64-0.07,15.97c0,1.79,0,3.57,0,5.62
			c-2.92,0-5.32,0-8.31,0c0-6.08,0-12.02,0-17.96c0-5.79,0-11.58,0-18.26c3.03,0.49,5.6,0.9,8.18,1.32
			c-0.02,0.41-0.03,0.82-0.05,1.23c1.3-0.66,2.57-1.41,3.91-1.97c9.94-4.16,19.03,0.84,19.89,11.53
			C480.47,282.59,479.96,290.58,479.96,298.88z"/>
		<path d="M591.47,263.07c2.43,0,4.72,0,7.75,0c0,5.55-0.03,10.96,0.01,16.38c0.02,2.32-0.12,4.7,0.31,6.96
			c0.71,3.77,2.23,7.21,6.88,7.16c3.6-0.04,7.27-4.03,7.41-8.19c0.21-6.48,0.07-12.96,0.1-19.45c0-0.8,0.11-1.61,0.19-2.71
			c2.59,0,4.99,0,7.81,0c0,11.74,0,23.44,0,36.06c-2.74-0.37-5.42-0.73-8.09-1.09c0.07-0.33,0.14-0.65,0.2-0.98
			c-2.14,0.84-4.23,1.92-6.45,2.47c-8.4,2.06-15.09-1.79-15.94-10.32C590.81,280.84,591.47,272.18,591.47,263.07z"/>
		<path d="M659.73,292.43c0.48,1.64,0.97,3.32,1.54,5.29c-7.05,2.59-13.84,3.52-20.66,0.84c-8.53-3.36-12.14-15.14-8.16-25.86
			c3.28-8.82,11.96-12.92,21.04-9.93c6.06,1.99,11.23,11.25,9.41,17.44c-0.29,0.99-2.37,2.03-3.65,2.07
			c-6.58,0.21-13.16,0.1-19.75,0.1C639.87,292.76,644.45,294.95,659.73,292.43z M654.67,276.65c-0.74-5.67-3.45-9.03-7.1-9.07
			c-3.52-0.04-6.72,3.56-7.86,9.07C644.64,276.65,649.52,276.65,654.67,276.65z"/>
		<path d="M490.26,263.07c2.64,0,4.93,0,7.59,0c0,11.88,0,23.61,0,35.68c-2.42,0-4.82,0-7.59,0
			C490.26,287.05,490.26,275.32,490.26,263.07z"/>
		<path d="M516.23,157.88c-1.84-1.43-3.69-2.87-5.28-4.11c-1.83,1.26-3.77,2.6-5.72,3.95c-0.44-0.34-0.88-0.69-1.33-1.03
			c3.69-4.44,6.4-8.86-0.35-13.46c-1.57,3.99-3.1,8.05-4.76,12.06c-2.88,6.94-5.03,8.6-9.03,6.74c2.28-2.72,6.26-4.72,3.42-9.43
			c-1.85-3.07-2.74-6.73-4.2-10.49c6.82-0.64,4.59,6.01,7.84,8.42c1.07-2.78,2.15-5.59,3.21-8.34c4.31-0.37,8.59-1.45,10.49,3.58
			c2.13-1.6,3.99-2.99,5.86-4.39c0.38,0.39,0.76,0.78,1.14,1.17c-1.33,2.2-2.66,4.4-4.17,6.89c1.29,2.24,2.68,4.62,4.06,7.01
			C517.01,156.93,516.62,157.41,516.23,157.88z"/>
		<path d="M492.08,86.46c0.09,6.77-3.75,10.92-10.09,10.92c-6.19,0-9.8-3.92-9.76-10.59c0.04-6.42,3.96-10.76,9.81-10.86
			C487.99,75.82,491.99,80.01,492.08,86.46z M476.1,86.71c-0.03,4.67,2.75,8.31,6.23,8.15c3.23-0.14,5.8-3.72,5.84-8.1
			c0.04-4.25-2.62-8.04-5.78-8.25C479.02,78.3,476.13,82.05,476.1,86.71z"/>
		<path d="M645.78,150.59c5.14-8.45,5.14-8.45,8.15-8.26c0.32,4.87,0.63,9.78,0.96,14.79c-3.08-0.65-3.08-0.65-4.25-6.64
			c-1.54,2.21-3.13,4.5-4.73,6.78c-1.49-2.16-2.99-4.33-4.51-6.53c-1.41,1.69,1.19,6.12-3.95,6.71c0.25-4.72,0.35-8.84,0.79-12.92
			c0.1-0.93,1.38-2.38,2.16-2.41c0.93-0.04,2.29,1,2.79,1.93C644.25,146.01,644.88,148.22,645.78,150.59z"/>
		<path d="M585.12,96.96c0.33-4.9,0.66-9.8,0.99-14.68c3.97-0.19,3.97-0.19,7.7,8.8c1.07-2.58,1.71-4.68,2.79-6.53
			c0.64-1.08,1.97-1.75,3-2.61c0.8,1.01,2.16,1.96,2.28,3.04c0.44,3.91,0.45,7.87,0.66,12.51c-5.39-0.7-2.59-5.09-4.02-7.1
			c-0.28,0.12-0.7,0.16-0.83,0.37c-1.32,2.15-2.59,4.34-3.87,6.51c-1.53-2.1-3.07-4.21-4.43-6.07c-0.71,1.78-1.63,4.1-2.55,6.43
			C586.25,97.4,585.69,97.18,585.12,96.96z"/>
		<path d="M485.51,142.29c0.58,5.08,1.27,9.93,1.61,14.8c0.11,1.59-0.7,3.24-1.09,4.86c-1.08-1.26-2.15-2.52-3.72-4.37
			c-1.51,0-3.96,0-6.78,0c-0.16,0.96-0.12,1.98-0.53,2.76c-0.36,0.68-1.22,1.1-1.86,1.64c-0.44-0.58-1.2-1.12-1.26-1.74
			c-0.15-1.47-0.26-3.05,0.14-4.44c1.22-4.31,2.69-8.55,4.28-13.52C478.51,142.29,481.9,142.29,485.51,142.29z M482.19,154.65
			c0-2.67,0.19-5.12-0.09-7.51c-0.11-0.95-1.28-1.76-1.97-2.64c-0.63,0.94-1.6,1.8-1.83,2.83c-0.51,2.34-0.65,4.76-0.96,7.33
			C478.91,154.65,480.3,154.65,482.19,154.65z"/>
		<path d="M537.17,158.56c0-6.58,0-11.15,0-17.22c4.03,0.92,8.77,0.64,10.66,2.82c1.98,2.28,2.87,8.43,1.27,10.2
			C546.78,156.94,541.79,157.12,537.17,158.56z M539.9,153.82c0.62,0.63,1.23,1.26,1.85,1.89c1.4-0.97,2.8-1.94,4.2-2.92
			c-1.13-0.77-2.46-2.34-3.35-2.12C541.51,150.94,540.78,152.7,539.9,153.82z"/>
		<path d="M528.47,83.39c2.18-0.46,4.63-1.74,6.48-1.15c1.96,0.63,4.28,2.8,4.77,4.72c0.79,3.11,0.21,6.56,0.21,9.98
			c-2.42,0.15-4.68,0.3-6.94,0.41c-2.69,0.13-5.67-0.35-5.4-3.52c0.15-1.84,2.46-3.73,4.18-5.13c1.03-0.84,2.8-0.77,4.44-1.16
			c-1.17-4.76-4.57-2.27-7.25-1.93C528.8,84.87,528.64,84.13,528.47,83.39z"/>
		<path d="M613.3,85.88c-2.32-0.37-4.64-0.75-7.41-1.19c0.14-3.47,3.37-2.74,5.45-2.66c5.26,0.19,6.38,3.39,5.41,15.53
			c-3.93-2.46-10.32,3.4-12.09-3.62c-1.41-5.62,4.69-5.09,8.19-6.32C613,87.04,613.15,86.46,613.3,85.88z"/>
		<path d="M643.69,97.68c-4.17-2.36-10.68,3.19-12.07-3.9c-1.1-5.62,4.94-4.93,8.57-6.29c-1.08-4.86-4.62-1.97-7.88-2.07
			c1.16-3.75,3.87-3.6,6.21-3.42C643.71,82.4,644.87,85.85,643.69,97.68z"/>
		<path d="M670.98,150.11c-3.39,0.19-6.61,0.36-10.05,0.55c1.08,6.07,6.1,3.34,9.14,4.92c-3.51,2.26-7.15,2.7-10.35,0.38
			c-3.42-2.49-3.48-6.26-1.87-9.92c1.58-3.59,4.69-4.69,8.26-3.9C670.06,143,671.04,146.07,670.98,150.11z"/>
		<path d="M690.37,150.29c4.29-2.29,3.35-9.22,10-8.01c0,4.19,0.12,8.16-0.09,12.12c-0.05,0.97-1.19,1.88-1.82,2.81
			c-0.52-1.03-1.3-2.01-1.48-3.1c-0.26-1.55-0.07-3.18-0.07-4.99c-4.11,1.98-3.07,9.49-9.99,7.81c0-4.26-0.09-8.4,0.08-12.54
			c0.03-0.82,1.06-1.6,1.63-2.39c0.58,0.81,1.52,1.57,1.65,2.45C690.55,146.18,690.37,147.99,690.37,150.29z"/>
		<path d="M563.36,150.36c4.2-2.34,3.43-9.08,10-8.2c0,4.32,0.1,8.45-0.08,12.57c-0.04,0.86-1.07,1.67-1.64,2.51
			c-0.57-0.81-1.51-1.57-1.64-2.44c-0.26-1.76-0.08-3.58-0.08-5.64c-4.11,1.87-3.09,9.4-9.99,7.84c0-4.33-0.07-8.63,0.07-12.93
			c0.02-0.71,0.95-1.39,1.46-2.08c0.63,0.76,1.68,1.45,1.81,2.28C563.56,146.03,563.36,147.87,563.36,150.36z"/>
		<path d="M553.64,88.91c-4.26,2.28-3.24,9.25-10,8.12c0-4.34-0.1-8.47,0.08-12.6c0.04-0.84,1.09-1.63,1.67-2.44
			c0.56,0.81,1.49,1.57,1.62,2.44c0.26,1.75,0.08,3.56,0.08,5.6c4.15-1.84,3.24-9.26,9.99-7.82c0,4.23,0.09,8.38-0.07,12.51
			c-0.03,0.86-1.02,1.68-1.56,2.51c-0.6-0.8-1.59-1.54-1.72-2.41C553.45,93.07,553.64,91.25,553.64,88.91z"/>
		<path d="M723.08,151.08c6.2-8.96,6.2-8.96,9.99-8.83c0,4.26,0.07,8.54-0.07,12.81c-0.02,0.73-0.9,1.44-1.39,2.16
			c-0.66-0.73-1.75-1.39-1.88-2.2c-0.28-1.86-0.09-3.8-1.2-5.99c-1.3,2.21-2.44,4.54-3.97,6.58c-0.65,0.87-2.19,1.66-3.18,1.5
			c-0.72-0.11-1.62-1.8-1.69-2.83c-0.21-3.3-0.18-6.63,0.02-9.92c0.05-0.82,1.12-1.57,1.72-2.35c0.54,0.82,1.44,1.59,1.56,2.47
			C723.25,146.26,723.08,148.11,723.08,151.08z"/>
		<path d="M670.91,97.06c0-1.45,0.02-2.43-0.01-3.41c-0.02-0.82-0.1-1.65-0.16-2.72c-0.96-0.18-1.89-0.45-2.83-0.5
			c-0.78-0.04-1.58,0.16-2.1,0.23c-0.33,0.45-0.47,0.56-0.51,0.71c-0.64,1.97-1.57,5.69-1.85,5.64c-4.15-0.72-1.71-4.12-2.16-6.38
			c-0.38-1.92-0.34-4.03,0.04-5.94c0.23-1.15,1.49-2.1,2.28-3.13c0.43,0.27,0.87,0.54,1.3,0.81c0.11,1.62,0.21,3.23,0.34,5.19
			c1.78,0,3.48,0,5.47,0c0.12-1.7,0.22-3.32,0.33-4.94c0.37-0.32,0.74-0.64,1.11-0.96c0.87,1.06,2.38,2.05,2.52,3.2
			C675.78,93.99,675.02,96.54,670.91,97.06z"/>
		<path d="M499.13,87.65c1.74,0,3.15,0,4.03,0c1.11-2.32,2.02-4.22,2.94-6.13c0.66,0.2,1.32,0.4,1.98,0.6
			c0,4.22,0.09,8.45-0.07,12.66c-0.03,0.84-1.02,1.65-1.57,2.48c-0.74-0.85-2.12-1.72-2.1-2.56c0.1-3.88-1.31-5.21-4.5-3.97
			c-2.36,1.93,1.21,7.11-4.67,6.34c0-4.84,0-9.6,0-14.35C498.52,82.16,498.52,82.16,499.13,87.65z"/>
		<path d="M568.91,87.8c1.39-2.61,2.37-4.46,3.35-6.3c0.51,0.22,1.02,0.45,1.54,0.67c0,4.89,0,9.78,0,14.83
			c-5.7,0.81-2.39-4.19-4.7-6.33c-0.69-0.04-2.08-0.13-3.04-0.18c-2.58,1.84,0.78,7.22-4.93,6.67c0-5.07,0-9.83,0-14.58
			c3.36-0.27,3.36-0.27,4.05,4.73c0.28,0.17,0.55,0.45,0.84,0.47C567.15,87.83,568.29,87.8,568.91,87.8z"/>
		<path d="M612.92,157.37c-4.83-0.02-7.78-3.04-7.65-7.83c0.12-4.6,3.45-7.73,8.08-7.62c4.42,0.11,7.37,3.2,7.39,7.73
			C620.77,154.39,617.72,157.39,612.92,157.37z M618.32,150.07c-2.14-2.32-3.56-3.86-4.99-5.4c-1.41,1.54-3.96,3.1-3.92,4.61
			c0.04,1.87,2.23,3.68,3.48,5.52C614.45,153.44,616.01,152.08,618.32,150.07z"/>
		<path d="M594.91,142.61c0.13,1.41,0.26,2.83,0.39,4.28c2.61-1.99,5.05-3.84,7.48-5.68c0.38,0.46,0.76,0.91,1.14,1.37
			c-1.59,2.03-3.18,4.06-4.57,5.83c1.74,2.83,3.34,5.43,5.04,8.18c-5.84,2.63-4.53-5.36-9.01-4.75c-0.16,1.52-0.34,3.21-0.53,4.91
			c-0.46,0.27-0.91,0.55-1.37,0.82c-0.76-1.29-2.32-2.72-2.12-3.85c0.68-3.89-2.42-8.97,1.83-11.85
			C593.77,142.11,594.34,142.36,594.91,142.61z"/>
		<path d="M526.05,157.37c-4.88,0.04-7.84-2.89-7.78-7.7c0.05-4.6,3.33-7.79,7.95-7.75c4.42,0.04,7.43,3.08,7.53,7.6
			C533.85,154.24,530.81,157.34,526.05,157.37z M531.62,150.04c-2.46-2.34-4.04-3.85-5.63-5.36c-1.29,1.49-3.7,3.06-3.59,4.43
			c0.15,1.97,2.15,3.8,3.35,5.68C527.35,153.5,528.95,152.2,531.62,150.04z"/>
		<path d="M708.86,151.59c-2.17,1.57,0.73,6.85-4.74,5.29c0-4.83,0-9.61,0-14.38c3.36-0.2,3.36-0.2,4.25,4.91
			c1.38-1.65,2.32-3.26,3.7-4.26c1.15-0.84,2.82-0.97,5.64-1.85c-2.57,3.26-4.19,5.3-5.61,7.09c1.75,2.83,3.36,5.42,4.97,8.02
			c-0.49,0.46-0.97,0.91-1.46,1.37C713.34,155.7,711.07,153.62,708.86,151.59z"/>
		<path d="M511.41,98.34c1.21-6.4,2.07-10.95,3.03-16.01c2.81,0,6.18,0,9.59,0c2.16,8.07,1.03,14.36-3.13,14.56
			c0-3.31,0.15-6.61-0.1-9.88c-0.07-0.89-1.33-1.69-2.05-2.53c-0.55,0.84-1.42,1.61-1.6,2.52c-0.44,2.26-0.08,4.79-0.95,6.81
			C515.5,95.44,513.46,96.49,511.41,98.34z"/>
		<path d="M647.65,82.79c2.62-0.09,5.37-0.72,7.81-0.11c2.7,0.67,3.26,3.01,1.74,5.56c-0.19,0.32-0.13,1.06,0.11,1.33
			c2.18,2.38,2.68,4.92-0.37,6.65c-3.2,1.82-6.64,1.71-9.7,0.02c0.03-0.53,0.07-1.06,0.1-1.59c0.96,0,1.95,0.15,2.87-0.03
			c1.5-0.31,2.95-0.83,4.43-1.27c-1.05-0.98-2.06-2.02-3.18-2.92c-0.46-0.37-1.16-0.43-2.51-0.89c2.09-1.11,3.55-1.89,5.01-2.67
			c0.02-0.48,0.03-0.95,0.05-1.43c-2.1-0.31-4.19-0.62-6.29-0.92C647.71,83.96,647.68,83.38,647.65,82.79z"/>
		<path d="M634.82,145c-3.79-0.67-7.29-0.71-7.9,4.16c-0.49,3.93,1.61,5.44,7.94,5.93c0.04,0.48,0.09,0.95,0.13,1.43
			c-2.27,0.21-4.6,0.87-6.79,0.54c-3.72-0.57-5.11-3.61-5.19-6.95c-0.1-3.84,1.65-6.95,5.67-7.7c2.07-0.38,4.33,0.31,6.51,0.52
			C635.07,143.61,634.95,144.31,634.82,145z"/>
		<path d="M684.9,142.62c-5.61,1.8-3.96,6.32-4.13,10.12c-0.09,2.08,0.86,5.15-3.66,4.25c0-3.86,0-7.79,0-11.77
			c-1.66-0.63-2.97-1.12-4.28-1.61c0.03-0.33,0.05-0.66,0.08-0.99C676.9,142.62,680.9,142.62,684.9,142.62z"/>
		<path d="M495.57,248.21c1.16,1.84,3.09,3.59,3.31,5.54c0.37,3.15-2.22,4.04-5.03,4.03c-3.12-0.01-5.04-1.76-4.4-4.61
			c0.43-1.9,2.58-3.41,3.96-5.1C494.13,248.12,494.85,248.16,495.57,248.21z"/>
		<path d="M621.3,82.28c3.43,0,6.48,0,9.54,0c0.09,0.42,0.17,0.84,0.26,1.26c-1.82,0.44-3.64,0.88-5.49,1.32
			c-2.86,3.55,2.1,9.64-4.3,13.14C621.3,92.23,621.3,87.38,621.3,82.28z"/>
		<path d="M546.41,77.74c2.75,0,5.5,0,9.55,0c-2.22,1.4-3.73,3.09-5.29,3.13c-1.65,0.04-3.33-1.49-5-2.34
			C545.92,78.27,546.16,78,546.41,77.74z"/>
	</g>
</g>
</svg>
